<?xml version="1.0" standalone="no"?>
<!DOCTYPE svg PUBLIC "-//W3C//DTD SVG 20010904//EN"
 "http://www.w3.org/TR/2001/REC-SVG-20010904/DTD/svg10.dtd">
<svg version="1.0" xmlns="http://www.w3.org/2000/svg"
 width="194.000000pt" height="194.000000pt" viewBox="0 0 194.000000 194.000000"
 preserveAspectRatio="xMidYMid meet">

<g transform="translate(0.000000,194.000000) scale(0.100000,-0.100000)"
fill="#000000" stroke="none">
<path d="M842 1932 c-13 -4 48 -7 134 -7 87 0 145 3 128 6 -38 9 -233 9 -262
1z"/>
<path d="M778 1913 c6 -2 18 -2 25 0 6 3 1 5 -13 5 -14 0 -19 -2 -12 -5z"/>
<path d="M1148 1913 c6 -2 18 -2 25 0 6 3 1 5 -13 5 -14 0 -19 -2 -12 -5z"/>
<path d="M705 1900 c-25 -11 1 -11 35 0 20 6 21 8 5 8 -11 0 -29 -3 -40 -8z"/>
<path d="M1198 1903 c7 -3 16 -2 19 1 4 3 -2 6 -13 5 -11 0 -14 -3 -6 -6z"/>
<path d="M1275 1880 c27 -12 43 -12 25 0 -8 5 -22 9 -30 9 -10 0 -8 -3 5 -9z"/>
<path d="M561 1845 c-141 -68 -266 -168 -358 -287 -45 -59 -125 -203 -138
-248 -4 -14 18 25 49 85 100 196 236 332 430 430 121 61 134 76 17 20z"/>
<path d="M1340 1855 c14 -8 30 -14 35 -14 6 0 -1 6 -15 14 -14 8 -29 14 -35
14 -5 0 1 -6 15 -14z"/>
<path d="M870 1826 c-9 -12 -7 -17 9 -28 24 -15 28 -33 6 -24 -8 3 -15 1 -15
-4 0 -14 37 -12 46 1 4 7 -4 20 -17 30 -21 17 -20 24 4 20 5 -1 6 3 2 9 -9 14
-20 13 -35 -4z"/>
<path d="M930 1829 c0 -5 5 -7 11 -3 8 5 10 -4 7 -30 -2 -22 0 -36 7 -36 7 0
9 14 7 35 -4 30 -2 34 14 28 12 -4 15 -3 10 5 -9 15 -56 16 -56 1z"/>
<path d="M1010 1828 c0 -7 -7 -25 -14 -40 -13 -25 -13 -28 0 -28 8 0 12 5 9
10 -3 6 3 10 15 10 12 0 18 -4 15 -10 -3 -5 -1 -10 5 -10 11 0 6 51 -7 73 -7
12 -23 8 -23 -5z m20 -23 c0 -8 -4 -15 -10 -15 -5 0 -7 7 -4 15 4 8 8 15 10
15 2 0 4 -7 4 -15z"/>
<path d="M830 1799 c5 -18 7 -36 4 -40 -3 -5 2 -9 10 -9 12 0 13 6 6 31 -5 18
-7 36 -4 40 3 5 -2 9 -10 9 -12 0 -13 -6 -6 -31z"/>
<path d="M1075 1819 c-4 -5 1 -19 11 -30 9 -10 14 -22 10 -26 -4 -4 -11 -1
-16 7 -8 13 -10 12 -10 -2 0 -11 8 -18 19 -18 28 0 36 18 17 39 -20 22 -21 35
-1 27 8 -3 15 -1 15 4 0 13 -37 13 -45 -1z"/>
<path d="M1410 1827 c0 -3 30 -22 67 -43 84 -49 246 -207 298 -291 37 -61 58
-86 34 -40 -66 124 -241 297 -366 361 -18 9 -33 15 -33 13z"/>
<path d="M785 1803 c-5 -12 -9 -14 -12 -5 -3 6 -9 12 -15 12 -6 0 -4 -8 5 -18
15 -16 15 -20 2 -38 -15 -18 -16 -18 -36 9 -29 38 -44 34 -44 -13 0 -22 3 -40
8 -40 4 0 7 7 7 15 0 8 7 15 15 15 8 0 15 -4 15 -10 0 -17 50 12 50 29 1 14 3
13 14 -2 8 -10 17 -14 20 -9 3 5 -1 15 -9 22 -11 9 -12 17 -4 31 5 11 6 19 0
19 -5 0 -12 -8 -16 -17z m-71 -38 c3 -8 1 -15 -4 -15 -6 0 -10 7 -10 15 0 8 2
15 4 15 2 0 6 -7 10 -15z"/>
<path d="M1163 1775 c-9 -30 -9 -35 7 -40 38 -12 68 23 48 59 -16 28 -44 19
-55 -19z m45 -3 c2 -13 -3 -25 -13 -28 -22 -9 -27 -1 -19 30 7 31 28 29 32 -2z"/>
<path d="M1245 1763 c-3 -15 -11 -30 -16 -34 -5 -3 2 -11 15 -17 16 -7 28 -8
31 -2 4 6 -1 10 -9 10 -22 0 -20 20 2 21 10 0 12 3 5 6 -23 9 -14 25 10 18 21
-6 21 -6 3 9 -27 22 -33 20 -41 -11z"/>
<path d="M620 1765 c-22 -12 -21 -20 2 -16 11 1 30 -38 23 -49 -3 -5 1 -7 9
-4 14 5 14 9 0 35 -8 17 -10 29 -4 29 5 0 10 5 10 10 0 13 -10 12 -40 -5z"/>
<path d="M1329 1718 c-26 -27 -28 -48 -3 -27 11 9 15 7 21 -7 7 -19 32 -43 46
-44 4 0 7 7 7 16 0 8 5 12 10 9 6 -4 8 -15 5 -26 -4 -11 -2 -19 4 -19 6 0 11
7 11 16 0 9 7 22 16 29 15 10 15 13 -1 28 -22 23 -30 21 -43 -8 -17 -37 -32
-30 -32 14 0 22 -3 41 -7 43 -5 2 -20 -8 -34 -24z m31 -3 c0 -8 -4 -15 -10
-15 -5 0 -7 7 -4 15 4 8 8 15 10 15 2 0 4 -7 4 -15z m80 -36 c0 -5 -7 -9 -15
-9 -9 0 -12 6 -9 15 6 15 24 11 24 -6z"/>
<path d="M533 1715 c-7 -20 0 -27 27 -29 11 0 19 -5 18 -11 -1 -5 -9 -8 -18
-7 -12 3 -13 1 -2 -9 10 -11 15 -10 28 3 21 21 10 38 -24 38 -26 1 -26 1 -8
15 18 13 18 15 3 15 -10 0 -20 -7 -24 -15z"/>
<path d="M845 1686 c-325 -63 -556 -312 -596 -640 -20 -161 23 -340 115 -479
60 -91 182 -198 278 -245 120 -59 192 -76 328 -76 136 -1 208 16 325 74 189
93 326 261 382 470 24 88 23 271 -1 360 -69 256 -279 466 -526 525 -95 22
-223 27 -305 11z m257 -20 c458 -88 709 -583 508 -1001 -154 -320 -519 -479
-855 -371 -248 79 -432 288 -481 544 -94 489 339 921 828 828z"/>
<path d="M920 1414 c-18 -47 -14 -54 35 -54 25 0 45 -5 45 -10 0 -10 -107
-389 -117 -417 -4 -9 7 -13 34 -13 l39 0 67 238 c37 130 67 244 67 253 0 23
-21 29 -96 29 -60 0 -65 -2 -74 -26z"/>
<path d="M1103 1400 l-1 -40 43 0 c37 0 44 3 49 24 3 13 9 31 12 40 5 13 -3
16 -47 16 l-54 0 -2 -40z"/>
<path d="M705 1408 c-43 -15 -90 -52 -113 -90 -16 -26 -122 -368 -122 -393 0
-3 17 -5 37 -3 l37 3 51 175 c55 189 64 209 106 234 37 22 65 20 83 -6 21 -30
20 -48 -8 -143 l-23 -80 -72 -3 -71 -3 0 -34 0 -35 60 0 c33 0 60 -1 60 -2 0
-2 -7 -27 -14 -55 l-14 -53 37 0 37 0 52 183 c29 101 52 194 52 208 0 34 -35
88 -66 99 -32 12 -70 12 -109 -2z"/>
<path d="M1296 1405 c-44 -15 -91 -57 -114 -100 -8 -16 -39 -110 -67 -207
l-52 -178 38 0 38 0 20 68 c11 37 34 116 51 176 35 123 50 150 93 172 39 21
72 11 86 -25 11 -24 9 -41 -9 -102 -12 -41 -24 -82 -26 -91 -5 -15 -17 -18
-78 -18 l-72 0 4 -35 4 -35 52 0 c29 0 55 -3 59 -6 3 -3 -1 -24 -9 -46 -20
-57 -19 -60 23 -56 l37 3 33 115 c70 240 74 260 62 302 -18 68 -87 94 -173 63z"/>
<path d="M833 810 c-26 -11 -31 -45 -7 -54 9 -3 27 -6 40 -6 13 0 24 -4 24 -9
0 -14 -29 -22 -56 -15 -13 3 -24 2 -24 -4 0 -14 42 -20 69 -10 36 13 25 52
-16 56 -18 2 -33 7 -33 12 0 12 26 19 49 13 12 -3 21 -1 21 6 0 6 -4 11 -9 11
-5 0 -15 2 -23 4 -7 3 -23 1 -35 -4z"/>
<path d="M1061 801 c-40 -40 -20 -91 35 -91 28 0 36 5 44 25 10 27 -2 75 -19
75 -5 0 -16 3 -24 6 -9 3 -25 -4 -36 -15z m50 -11 c24 -13 25 -46 1 -59 -37
-20 -70 27 -40 57 15 15 15 15 39 2z"/>
<path d="M1541 809 c-36 -14 -25 -53 17 -57 17 -2 32 -7 32 -12 0 -12 -26 -19
-49 -13 -12 3 -21 1 -21 -5 0 -15 39 -22 67 -11 18 6 24 15 21 32 -2 18 -10
23 -40 25 -21 2 -38 7 -38 12 0 12 34 22 54 14 9 -3 16 -2 16 4 0 14 -32 20
-59 11z"/>
<path d="M330 800 c0 -5 9 -10 20 -10 17 0 20 -7 20 -40 0 -22 3 -40 8 -40 4
0 6 18 4 40 -4 35 -2 40 17 40 12 0 21 5 21 10 0 6 -20 10 -45 10 -25 0 -45
-4 -45 -10z"/>
<path d="M445 760 c0 -51 9 -66 18 -31 6 23 35 22 49 -2 16 -29 23 -19 23 31
l0 47 -45 3 -45 3 0 -51z m73 18 c-3 -7 -15 -13 -28 -13 -13 0 -25 6 -27 13
-3 8 6 12 27 12 21 0 30 -4 28 -12z"/>
<path d="M582 763 c-11 -26 -18 -50 -15 -53 3 -3 8 1 10 8 6 16 70 16 76 0 2
-7 7 -11 10 -8 9 9 -35 100 -48 100 -7 0 -22 -21 -33 -47z m48 -5 c0 -5 -7 -8
-15 -8 -17 0 -18 2 -9 25 5 13 8 14 15 3 5 -7 9 -16 9 -20z"/>
<path d="M690 760 c0 -58 17 -68 22 -13 l3 37 25 -37 c35 -52 50 -48 50 13 0
58 -17 68 -22 13 l-3 -37 -25 37 c-35 52 -50 48 -50 -13z"/>
<path d="M930 761 c0 -28 4 -51 9 -51 5 0 8 8 7 18 -1 12 7 17 24 19 14 0 31
1 38 2 8 1 12 11 10 29 -3 24 -7 27 -45 30 l-43 3 0 -50z m75 19 c7 -11 -39
-25 -54 -15 -6 3 -11 10 -11 16 0 12 57 12 65 -1z"/>
<path d="M1170 760 c0 -27 5 -50 10 -50 6 0 10 9 10 20 0 13 7 20 19 20 11 0
23 -9 26 -20 11 -35 21 -22 23 30 l2 50 -45 0 -45 0 0 -50z m78 18 c-7 -20
-58 -23 -58 -4 0 11 10 16 31 16 20 0 29 -4 27 -12z"/>
<path d="M1285 800 c3 -5 13 -10 21 -10 10 0 14 -12 14 -40 0 -22 5 -40 10
-40 6 0 10 18 10 40 0 28 4 40 14 40 8 0 18 5 21 10 4 6 -13 10 -45 10 -32 0
-49 -4 -45 -10z"/>
<path d="M1400 760 l0 -50 50 0 c28 0 50 5 50 10 0 6 -18 10 -40 10 -22 0 -40
5 -40 10 0 6 14 10 30 10 17 0 30 5 30 10 0 6 -13 10 -30 10 -16 0 -30 5 -30
10 0 6 16 10 35 10 19 0 35 5 35 10 0 6 -20 10 -45 10 l-45 0 0 -50z"/>
<path d="M640 515 l0 -105 32 0 c27 0 48 16 138 105 94 92 104 105 81 105 -19
0 -47 -22 -107 -81 l-82 -82 -7 82 c-7 77 -9 81 -31 81 -24 0 -24 -1 -24 -105z"/>
<path d="M920 520 c-27 -55 -50 -102 -50 -105 0 -4 12 -5 26 -3 22 3 33 18 74
106 48 101 48 102 24 102 -20 0 -31 -15 -74 -100z"/>
<path d="M1040 521 c-27 -56 -50 -103 -50 -106 0 -3 11 -5 25 -5 19 0 29 9 42
38 l18 37 90 5 c54 3 99 11 112 20 29 19 46 51 41 81 -3 24 -5 24 -115 27
l-112 3 -51 -100z m223 53 c3 -4 2 -15 -4 -25 -8 -16 -22 -19 -84 -19 -41 0
-75 3 -75 6 0 3 5 14 10 25 9 16 22 19 79 19 37 0 71 -3 74 -6z"/>
<path d="M473 1674 c-9 -24 10 -49 38 -49 27 0 37 28 19 50 -17 20 -49 19 -57
-1z m47 -9 c13 -16 6 -35 -15 -35 -12 0 -25 21 -25 41 0 14 26 11 40 -6z"/>
<path d="M1461 1638 c-13 -16 -20 -32 -16 -36 4 -4 10 -1 12 6 3 6 9 12 15 12
6 0 7 -7 4 -16 -8 -20 24 -60 34 -44 5 7 11 6 20 -5 10 -12 10 -15 -1 -15 -8
0 -4 -8 9 -21 l23 -20 29 24 c16 14 26 28 23 31 -4 3 -17 -4 -30 -16 -29 -27
-39 -18 -23 21 17 42 5 56 -27 31 -14 -11 -30 -20 -34 -20 -16 0 -10 32 9 46
16 12 16 14 -3 32 -20 20 -20 20 -44 -10z m41 -3 c0 -5 -5 -11 -11 -13 -6 -2
-11 4 -11 13 0 9 5 15 11 13 6 -2 11 -8 11 -13z m52 -60 c-4 -8 -11 -12 -16
-9 -6 4 -5 10 3 15 19 12 19 11 13 -6z"/>
<path d="M402 1628 c-7 -10 -3 -21 14 -41 20 -24 27 -27 39 -17 8 7 15 20 15
29 0 36 -46 55 -68 29z m56 -26 c2 -12 -1 -22 -6 -22 -14 0 -43 36 -35 44 14
13 38 1 41 -22z"/>
<path d="M330 1551 c-8 -17 -7 -24 10 -41 23 -23 38 -22 54 3 8 12 8 22 0 35
-16 25 -51 27 -64 3z m48 -3 c20 -20 14 -40 -10 -36 -15 2 -24 11 -26 26 -4
24 16 30 36 10z"/>
<path d="M261 1506 c-9 -10 -8 -15 3 -19 8 -3 23 -18 32 -32 14 -21 15 -28 5
-34 -7 -5 -12 -12 -12 -17 2 -17 -44 -9 -47 9 -2 10 3 17 13 17 9 0 13 5 10
10 -5 8 -11 7 -21 -1 -19 -15 -18 -33 3 -50 17 -15 83 -20 83 -6 0 4 -7 7 -15
7 -13 0 -14 4 -3 23 7 12 12 29 13 37 0 8 5 15 12 15 26 0 22 14 -6 20 -17 4
-37 13 -45 21 -12 11 -16 11 -25 0z m59 -38 c0 -13 -23 -5 -28 10 -2 7 2 10
12 6 9 -3 16 -11 16 -16z"/>
<path d="M1607 1500 c-20 -9 -34 -19 -31 -23 3 -3 12 -3 19 -1 16 6 29 -12 15
-21 -6 -3 -1 -20 13 -40 22 -34 37 -44 37 -25 0 6 -4 10 -10 10 -21 0 -9 19
19 31 16 7 27 17 25 21 -3 5 -18 1 -34 -9 -37 -21 -48 -12 -26 22 28 42 18 55
-27 35z m27 -15 c-4 -8 -11 -12 -16 -9 -6 4 -5 10 3 15 19 12 19 11 13 -6z"/>
<path d="M1831 1400 c14 -31 19 -36 19 -24 0 6 -7 19 -16 30 -14 18 -14 18 -3
-6z"/>
<path d="M1698 1362 c-32 -20 -34 -25 -12 -46 19 -19 25 -20 49 -3 13 10 16
21 11 40 -7 31 -11 31 -48 9z m42 -17 c0 -19 -24 -29 -47 -21 -14 6 -14 8 3
21 25 19 44 19 44 0z"/>
<path d="M190 1352 c0 -4 14 -21 30 -37 l31 -29 -3 24 c-2 15 2 24 9 23 6 -1
13 3 16 10 4 10 -8 14 -39 16 -24 1 -44 -2 -44 -7z m50 -12 c0 -5 -4 -10 -9
-10 -6 0 -13 5 -16 10 -3 6 1 10 9 10 9 0 16 -4 16 -10z"/>
<path d="M1851 1360 c0 -3 11 -34 25 -70 13 -36 22 -51 19 -35 -6 28 -43 116
-44 105z"/>
<path d="M166 1293 c-3 -8 -2 -12 2 -9 5 3 21 -2 36 -10 33 -16 36 -17 36 -6
0 4 -16 15 -34 23 -30 14 -36 14 -40 2z"/>
<path d="M1758 1303 c7 -3 16 -2 19 1 4 3 -2 6 -13 5 -11 0 -14 -3 -6 -6z"/>
<path d="M153 1254 c-15 -39 40 -71 64 -38 16 22 17 34 2 34 -5 0 -8 -4 -5 -9
9 -14 -20 -32 -38 -25 -13 5 -16 14 -12 30 7 27 -1 33 -11 8z"/>
<path d="M1710 1258 c0 -5 7 -8 15 -8 8 0 15 -7 15 -16 0 -8 -4 -12 -10 -9 -5
3 -10 2 -10 -4 0 -5 4 -12 10 -16 5 -3 7 -12 4 -19 -3 -8 0 -17 6 -21 16 -10
82 4 75 16 -4 6 -13 5 -25 -1 -10 -5 -25 -10 -33 -10 -21 0 -14 40 11 61 32
26 27 36 -18 35 -22 -1 -40 -4 -40 -8z m60 -12 c0 -3 -4 -8 -10 -11 -5 -3 -10
-1 -10 4 0 6 5 11 10 11 6 0 10 -2 10 -4z"/>
<path d="M35 1220 c-4 -17 -5 -34 -2 -36 2 -3 7 10 11 27 8 42 0 50 -9 9z"/>
<path d="M1901 1204 c0 -11 3 -14 6 -6 3 7 2 16 -1 19 -3 4 -6 -2 -5 -13z"/>
<path d="M131 1176 c-23 -28 15 -65 53 -50 21 8 21 50 0 58 -25 9 -41 7 -53
-8z m43 -2 c25 -10 19 -34 -8 -34 -27 0 -41 14 -31 30 7 12 17 12 39 4z"/>
<path d="M1912 1160 c0 -14 2 -19 5 -12 2 6 2 18 0 25 -3 6 -5 1 -5 -13z"/>
<path d="M22 1150 c0 -14 2 -19 5 -12 2 6 2 18 0 25 -3 6 -5 1 -5 -13z"/>
<path d="M1785 1141 c-24 -5 -30 -12 -30 -31 0 -22 4 -25 38 -26 25 -1 37 3
37 12 0 10 -6 11 -27 3 -18 -7 -30 -6 -37 1 -13 13 8 30 37 30 9 0 17 5 17 10
0 6 -1 9 -2 9 -2 -1 -16 -4 -33 -8z"/>
<path d="M1922 1105 c0 -16 2 -22 5 -12 2 9 2 23 0 30 -3 6 -5 -1 -5 -18z"/>
<path d="M6 1089 c-8 -40 -6 -217 2 -247 4 -13 7 45 7 127 0 83 -1 151 -1 151
-1 0 -4 -14 -8 -31z"/>
<path d="M110 1091 c0 -31 21 -36 40 -11 13 17 19 19 25 10 4 -7 2 -16 -6 -22
-12 -8 -11 -9 1 -5 21 5 25 36 5 44 -11 4 -21 0 -27 -10 -11 -21 -32 -22 -24
-2 3 8 1 15 -4 15 -6 0 -10 -9 -10 -19z"/>
<path d="M1762 1031 c2 -20 9 -27 32 -29 30 -4 46 10 46 41 0 15 -7 17 -40 15
-37 -2 -41 -4 -38 -27z m61 -12 c-13 -13 -45 -8 -50 8 -2 6 6 13 19 15 29 5
46 -8 31 -23z"/>
<path d="M1934 970 c0 -52 1 -74 3 -47 2 26 2 68 0 95 -2 26 -3 4 -3 -48z"/>
<path d="M104 1035 c-3 -8 -3 -19 1 -25 9 -15 35 -12 41 5 10 25 23 17 20 -11
-2 -19 -12 -30 -34 -40 -18 -7 -32 -19 -32 -25 0 -7 3 -10 6 -6 4 3 22 0 40
-8 30 -12 34 -12 34 1 0 8 -4 12 -10 9 -5 -3 -10 1 -10 9 0 9 4 16 9 16 13 0
12 78 -1 86 -6 4 -18 -3 -27 -15 -9 -12 -20 -19 -24 -15 -4 4 -2 13 4 21 9 9
8 13 0 13 -6 0 -14 -7 -17 -15z m46 -85 c0 -5 -7 -10 -16 -10 -8 0 -12 5 -9
10 3 6 10 10 16 10 5 0 9 -4 9 -10z"/>
<path d="M1760 974 c0 -8 5 -12 10 -9 6 3 10 -3 10 -15 0 -12 -4 -18 -10 -15
-5 3 -10 0 -10 -9 0 -12 5 -12 40 1 22 9 40 23 40 31 0 9 -3 13 -6 9 -4 -3
-22 0 -40 8 -30 12 -34 12 -34 -1z m60 -24 c0 -5 -7 -10 -15 -10 -8 0 -15 5
-15 10 0 6 7 10 15 10 8 0 15 -4 15 -10z"/>
<path d="M1922 835 c0 -16 2 -22 5 -12 2 9 2 23 0 30 -3 6 -5 -1 -5 -18z"/>
<path d="M22 785 c0 -11 4 -31 8 -45 6 -20 8 -21 8 -5 0 11 -4 31 -8 45 -6 20
-8 21 -8 5z"/>
<path d="M1912 780 c0 -14 2 -19 5 -12 2 6 2 18 0 25 -3 6 -5 1 -5 -13z"/>
<path d="M1901 734 c0 -11 3 -14 6 -6 3 7 2 16 -1 19 -3 4 -6 -2 -5 -13z"/>
<path d="M1881 669 c-7 -24 -26 -73 -42 -109 -16 -36 -22 -56 -14 -46 20 26
77 175 73 188 -2 6 -10 -9 -17 -33z"/>
<path d="M71 615 c0 -5 8 -26 19 -45 11 -19 19 -30 19 -25 0 6 -8 26 -19 45
-11 19 -19 31 -19 25z"/>
<path d="M266 515 c-18 -14 -24 -25 -17 -29 6 -4 11 -2 11 5 0 8 4 8 15 -1 18
-15 45 -6 45 13 0 31 -24 36 -54 12z m44 -10 c0 -8 -4 -15 -9 -15 -13 0 -22
16 -14 24 11 11 23 6 23 -9z"/>
<path d="M126 498 c65 -126 240 -304 362 -367 44 -23 21 -3 -40 34 -85 52
-243 214 -292 298 -40 69 -59 91 -30 35z"/>
<path d="M1607 512 c-3 -4 10 -17 29 -30 33 -21 34 -21 44 -3 13 25 13 31 -1
31 -5 0 -8 -4 -4 -9 12 -20 -14 -20 -38 -1 -14 11 -28 17 -30 12z"/>
<path d="M1591 483 c0 -12 59 -56 59 -44 0 5 -13 19 -30 31 -16 12 -30 18 -29
13z"/>
<path d="M1765 433 c-52 -79 -157 -186 -235 -241 -73 -51 -95 -70 -65 -54 39
20 140 99 188 146 50 51 126 146 146 184 21 40 4 23 -34 -35z"/>
<path d="M308 466 c-36 -27 -8 -78 30 -57 27 15 34 38 16 56 -19 18 -24 18
-46 1z m42 -21 c0 -19 -36 -39 -45 -25 -11 18 3 40 25 40 11 0 20 -7 20 -15z"/>
<path d="M1562 458 c-27 -27 -6 -56 28 -38 16 9 20 8 20 -5 0 -8 -5 -15 -12
-15 -6 0 -8 -3 -5 -6 11 -11 36 16 30 32 -4 11 -14 13 -37 9 -28 -5 -29 -5
-13 9 10 8 14 17 9 20 -5 3 -14 0 -20 -6z"/>
<path d="M356 404 c-15 -14 -25 -28 -21 -32 4 -4 10 -1 12 6 6 17 23 15 23 -3
0 -8 -5 -15 -11 -15 -5 0 -8 -4 -4 -10 3 -5 14 -1 25 10 12 12 26 17 36 13 15
-5 14 -9 -9 -29 -22 -19 -24 -24 -12 -34 12 -10 15 -9 15 2 0 22 37 53 42 36
3 -7 -1 -19 -9 -26 -32 -32 7 -81 42 -52 16 14 21 60 6 60 -5 0 -31 22 -58 49
l-48 50 -29 -25z m42 -5 c-2 -6 -8 -10 -13 -10 -5 0 -11 4 -13 10 -2 6 4 11
13 11 9 0 15 -5 13 -11z m86 -107 c-13 -19 -35 -23 -41 -6 -2 7 4 19 13 28 22
23 44 5 28 -22z"/>
<path d="M1516 403 c-7 -7 26 -73 36 -73 5 0 8 8 6 18 -2 10 3 17 14 17 31 0
27 10 -12 27 -21 9 -41 14 -44 11z m39 -23 c3 -5 2 -10 -4 -10 -5 0 -13 5 -16
10 -3 6 -2 10 4 10 5 0 13 -4 16 -10z"/>
<path d="M1452 348 c-7 -10 -3 -21 14 -42 24 -27 26 -28 44 -11 19 17 19 18
-3 41 -25 27 -40 30 -55 12z m38 -6 c0 -13 -12 -22 -22 -16 -10 6 -1 24 13 24
5 0 9 -4 9 -8z m20 -32 c0 -5 -4 -10 -10 -10 -5 0 -10 5 -10 10 0 6 5 10 10
10 6 0 10 -4 10 -10z"/>
<path d="M1403 309 c-9 -9 -6 -19 9 -40 17 -23 25 -26 40 -18 23 12 23 31 0
52 -22 20 -34 21 -49 6z m27 -9 c0 -5 -4 -10 -10 -10 -5 0 -10 5 -10 10 0 6 5
10 10 10 6 0 10 -4 10 -10z m21 -33 c-13 -13 -26 -3 -16 12 3 6 11 8 17 5 6
-4 6 -10 -1 -17z"/>
<path d="M527 275 c-4 -8 -2 -17 3 -20 6 -4 10 -14 10 -23 0 -12 -3 -13 -12
-4 -17 17 -33 15 -18 -3 26 -32 60 -10 38 24 -7 11 -8 24 -4 28 5 4 11 2 13
-4 3 -7 9 -13 15 -13 6 0 6 6 -2 15 -16 19 -36 19 -43 0z"/>
<path d="M574 229 c-17 -34 -8 -50 26 -48 11 1 10 3 -2 6 -10 2 -18 11 -18 20
0 10 6 13 16 9 13 -5 14 -4 6 7 -15 18 -3 30 15 16 8 -7 13 -8 13 -1 0 8 -22
22 -36 22 -2 0 -11 -14 -20 -31z"/>
<path d="M1352 241 c2 -7 7 -12 11 -12 12 1 9 15 -3 20 -7 2 -11 -2 -8 -8z"/>
<path d="M631 216 c-16 -19 -11 -46 12 -60 14 -8 20 -8 27 4 13 19 12 30 0 30
-5 0 -10 -7 -10 -15 0 -9 -6 -12 -15 -9 -17 7 -19 22 -5 44 8 13 13 13 31 2
18 -11 20 -11 17 0 -7 19 -43 22 -57 4z"/>
<path d="M1260 196 c4 -19 5 -37 2 -40 -3 -4 -1 -6 5 -6 6 0 13 9 16 20 3 11
10 20 17 20 6 0 8 -4 5 -10 -7 -11 8 -14 18 -4 7 7 -46 54 -61 54 -6 0 -7 -13
-2 -34z m30 3 c0 -5 -4 -9 -10 -9 -5 0 -10 7 -10 16 0 8 5 12 10 9 6 -3 10
-10 10 -16z"/>
<path d="M696 185 c-8 -41 -2 -55 24 -55 11 0 22 12 29 31 13 39 13 39 1 39
-5 0 -10 -8 -10 -17 0 -29 -17 -50 -30 -37 -7 7 -8 19 -1 37 6 14 6 29 2 32
-5 2 -12 -11 -15 -30z"/>
<path d="M1220 201 c5 -11 10 -30 10 -42 0 -16 3 -20 10 -13 12 12 -6 74 -21
74 -6 0 -5 -8 1 -19z"/>
<path d="M1185 189 c6 -17 3 -20 -12 -17 -10 2 -17 10 -15 16 1 7 -2 12 -6 12
-18 0 -20 -12 -7 -37 8 -15 12 -30 9 -35 -3 -4 3 -8 12 -8 14 0 15 3 6 12 -18
18 -15 28 8 28 11 0 20 -7 20 -16 0 -8 4 -13 9 -10 11 7 -8 76 -21 76 -5 0 -6
-9 -3 -21z"/>
<path d="M768 155 c-2 -19 0 -35 4 -35 4 0 8 5 8 10 0 6 5 10 10 10 6 0 10 -7
10 -15 0 -8 5 -15 11 -15 6 0 8 8 4 19 -3 11 -1 22 5 26 15 9 -7 35 -30 35
-13 0 -19 -10 -22 -35z m42 10 c0 -8 -4 -15 -9 -15 -13 0 -22 16 -14 24 11 11
23 6 23 -9z"/>
<path d="M1088 183 c-2 -5 -5 -24 -6 -43 -1 -19 1 -29 4 -22 7 16 31 16 37 0
2 -7 7 -10 11 -6 8 7 -18 63 -33 73 -5 3 -11 2 -13 -2z m22 -33 c0 -5 -4 -10
-10 -10 -5 0 -10 5 -10 10 0 6 5 10 10 10 6 0 10 -4 10 -10z"/>
<path d="M838 155 c-10 -21 -9 -29 5 -43 31 -31 75 19 47 53 -19 22 -39 18
-52 -10z m47 5 c9 -15 -4 -50 -20 -50 -18 0 -24 21 -13 43 10 19 24 22 33 7z"/>
<path d="M1012 141 c2 -35 5 -41 24 -41 29 0 35 10 25 46 -5 19 -15 30 -30 32
-20 3 -22 0 -19 -37z m35 -6 c2 -14 0 -25 -5 -25 -11 0 -22 47 -14 55 8 8 16
-4 19 -30z"/>
<path d="M946 141 c-4 -7 -5 -15 -2 -18 9 -9 19 4 14 18 -4 11 -6 11 -12 0z"/>
<path d="M1400 110 c-19 -11 -31 -19 -27 -20 11 0 67 29 67 35 0 7 -1 7 -40
-15z"/>
<path d="M527 109 c7 -7 15 -10 18 -7 3 3 -2 9 -12 12 -14 6 -15 5 -6 -5z"/>
<path d="M590 80 c8 -5 20 -10 25 -10 6 0 3 5 -5 10 -8 5 -19 10 -25 10 -5 0
-3 -5 5 -10z"/>
<path d="M1285 64 c-33 -14 -46 -22 -30 -18 31 6 118 43 100 42 -5 0 -37 -11
-70 -24z"/>
<path d="M655 55 c17 -8 37 -14 45 -14 8 0 -1 7 -20 14 -46 18 -64 17 -25 0z"/>
<path d="M728 33 c7 -3 16 -2 19 1 4 3 -2 6 -13 5 -11 0 -14 -3 -6 -6z"/>
<path d="M1198 33 c7 -3 16 -2 19 1 4 3 -2 6 -13 5 -11 0 -14 -3 -6 -6z"/>
<path d="M768 23 c6 -2 18 -2 25 0 6 3 1 5 -13 5 -14 0 -19 -2 -12 -5z"/>
<path d="M1148 23 c6 -2 18 -2 25 0 6 3 1 5 -13 5 -14 0 -19 -2 -12 -5z"/>
<path d="M823 13 c9 -2 25 -2 35 0 9 3 1 5 -18 5 -19 0 -27 -2 -17 -5z"/>
<path d="M1093 13 c9 -2 23 -2 30 0 6 3 -1 5 -18 5 -16 0 -22 -2 -12 -5z"/>
<path d="M923 3 c26 -2 68 -2 95 0 26 2 4 3 -48 3 -52 0 -74 -1 -47 -3z"/>
</g>
</svg>
